HIERARCHY
ROOT Hips
{
	OFFSET 0.00 0.00 0.00
	CHANNELS 6 Xposition Yposition Zposition Xrotation Yrotation Zrotation
	JOINT Spine
	{
		OFFSET 0.00000 6.11665 0.00000
		CHANNELS 3 Xrotation Yrotation Zrotation
		JOINT Head
		{
			OFFSET 0.00000 15.22556 0.00000
			CHANNELS 3 Xrotation Yrotation Zrotation
			End Site
			{
				OFFSET 0.00000 4.52755 0.00000
			}
		}
		JOINT LeftShoulder
		{
			OFFSET 0.00000 8.97765 0.00000
			CHANNELS 3 Xrotation Yrotation Zrotation
			JOINT LeftArm
			{
				OFFSET 7.11013 0.00000 0.00000
				CHANNELS 3 Xrotation Yrotation Zrotation
				JOINT LeftForeArm
				{
					OFFSET 10.39834 0.00000 0.00000
					CHANNELS 3 Yrotation Zrotation Xrotation
					JOINT LeftHand
					{
						OFFSET 8.88900 0.00000 0.00000
						CHANNELS 3 Xrotation Yrotation Zrotation
						JOINT LeftHandThumb1
						{
							OFFSET 0.00000 0.00000 0.00000
							CHANNELS 3 Xrotation Zrotation Yrotation
							End Site
							{
								OFFSET 0.00000 0.00000 3.93700
							}
						}
						End Site
						{
							OFFSET 3.93700 0.00000 0.00000
						}
					}
				}
			}
		}
		JOINT RightShoulder
		{
			OFFSET 0.00000 8.97765 0.00000
			CHANNELS 3 Xrotation Yrotation Zrotation
			JOINT RightArm
			{
				OFFSET -7.11013 0.00000 0.00000
				CHANNELS 3 Xrotation Yrotation Zrotation
				JOINT RightForeArm
				{
					OFFSET -10.39834 0.00000 0.00000
					CHANNELS 3 Yrotation Zrotation Xrotation
					JOINT RightHand
					{
						OFFSET -8.88900 0.00000 0.00000
						CHANNELS 3 Xrotation Yrotation Zrotation
						JOINT RightHandThumb1
						{
							OFFSET 0.00000 0.00000 0.00000
							CHANNELS 3 Xrotation Zrotation Yrotation
							End Site
							{
								OFFSET 0.00000 0.00000 3.93700
							}
						}
						End Site
						{
							OFFSET -3.93700 0.00000 0.00000
						}
					}
				}
			}
		}
	}
	JOINT LeftUpLeg
	{
		OFFSET 4.71176 0.00000 0.00000
		CHANNELS 3 Xrotation Yrotation Zrotation
		JOINT LeftLeg
		{
			OFFSET 0.00000 -15.51045 0.00000
			CHANNELS 3 Xrotation Yrotation Zrotation
			JOINT LeftFoot
			{
				OFFSET 0.00000 -14.85806 0.00000
				CHANNELS 3 Xrotation Yrotation Zrotation
				JOINT LeftToeBase
				{
					OFFSET 0.00000 -1.32744 4.95409
					CHANNELS 3 Xrotation Yrotation Zrotation
					End Site
					{
						OFFSET 0.00000 0.00000 2.95275
					}
				}
			}
		}
	}
	JOINT RightUpLeg
	{
		OFFSET -4.71176 0.00000 0.00000
		CHANNELS 3 Xrotation Yrotation Zrotation
		JOINT RightLeg
		{
			OFFSET 0.00000 -15.51045 0.00000
			CHANNELS 3 Xrotation Yrotation Zrotation
			JOINT RightFoot
			{
				OFFSET 0.00000 -14.85806 0.00000
				CHANNELS 3 Xrotation Yrotation Zrotation
				JOINT RightToeBase
				{
					OFFSET 0.00000 -1.32744 4.95409
					CHANNELS 3 Xrotation Yrotation Zrotation
					End Site
					{
						OFFSET 0.00000 0.00000 2.95275
					}
				}
			}
		}
	}
}
MOTION
Frames: 20
Frame Time: 0.008333
 6.0454 33.2399 2.6378 -12.5498 -10.4502 -21.0392 9.5830 15.6805 9.0486 13.9451 -12.4241 13.9683 -6.8764 13.8122 33.6917 5.0245 7.9961 -82.4395 -122.6744 -0.0000 -19.4023 -3.0554 -8.9284 -18.9794 33.1476 -0.0000 26.2537 10.7479 -24.3266 -20.1193 -8.0348 8.0567 79.6667 14.3458 -0.0000 15.9283 -2.4182 18.6404 7.5265 32.8623 0.0000 -24.3270 16.2564 9.4900 8.7180 1.0361 -0.0000 0.0000 -17.8860 24.3663 -3.5348 20.8329 -0.0000 -0.0000 -72.7643 -14.2365 -10.7322 101.2585 0.0000 0.0000 40.3140 -20.0952 30.3764 8.3510 0.0000 -0.0000
 6.0295 33.2683 2.6409 -12.4869 -10.1689 -21.3365 9.5012 15.5138 9.4368 13.7903 -12.5457 14.1179 -6.8442 13.7761 33.7021 5.0486 7.9301 -82.4107 -122.5290 -0.0000 -19.5560 -3.0914 -9.0391 -18.9711 33.1476 -0.0000 26.2537 10.7692 -24.3259 -20.0712 -8.0713 8.0829 79.5493 14.4032 -0.0000 15.7636 -2.3571 18.6268 7.3433 32.8623 0.0000 -24.3270 16.2833 9.3784 9.1288 0.8805 0.0000 0.0000 -17.8373 24.3230 -3.5944 21.0321 -0.0000 -0.0000 -72.2086 -11.9628 -10.2606 101.6958 0.0000 -0.0000 40.2548 -20.2419 30.4544 9.5731 -0.0000 0.0000
 6.0133 33.2953 2.6436 -12.4030 -9.9130 -21.6078 9.3845 15.3576 9.7930 13.6808 -12.6697 14.2654 -6.7716 13.7470 33.7041 5.0317 7.9033 -82.3899 -122.3703 -0.0000 -19.6809 -3.1635 -9.1617 -19.1432 33.1476 -0.0000 26.2537 10.8351 -24.3505 -20.0106 -8.1820 8.0252 79.4568 14.4360 -0.0000 15.7751 -2.4505 18.6777 7.6115 32.8623 0.0000 -24.3270 16.2097 9.4965 9.5447 0.7868 0.0000 -0.0000 -17.7301 24.0251 -3.7517 20.9370 0.0000 -0.0000 -71.7182 -9.7195 -9.8255 102.1341 0.0000 0.0000 40.1422 -20.5844 30.7627 11.1705 0.0000 -0.0000
 6.0048 33.3196 2.6508 -12.3386 -9.6526 -21.8330 9.2991 15.2038 10.1255 13.5591 -12.7968 14.3353 -6.7442 13.6832 33.6790 5.0640 7.8907 -82.3508 -122.2161 -0.0000 -19.7512 -3.1922 -9.2653 -19.1062 33.1476 -0.0000 26.2537 10.8554 -24.4020 -19.9577 -8.2762 8.0250 79.3372 14.4693 -0.0000 15.6536 -2.3803 18.5756 7.4345 32.8623 0.0000 -24.3270 16.1243 9.7605 9.9171 0.7351 0.0000 0.0000 -17.5973 23.5690 -4.2337 21.0251 0.0000 0.0000 -71.2530 -7.4882 -9.5017 102.6084 -0.0000 -0.0000 40.0172 -20.8271 30.8547 12.0432 -0.0000 -0.0000
 5.9920 33.3449 2.6525 -12.2253 -9.3866 -22.0831 9.1537 15.0209 10.4930 13.5026 -12.8832 14.3816 -6.7180 13.5916 33.6457 5.1229 7.9317 -82.3106 -122.0750 -0.0000 -19.8380 -3.2240 -9.3108 -19.1962 33.1476 -0.0000 26.2537 10.8874 -24.4492 -19.8965 -8.3674 8.0733 79.2333 14.4797 -0.0000 15.6147 -2.3096 18.6099 7.2031 32.8623 0.0000 -24.3270 16.0307 9.8054 10.2989 0.6379 -0.0000 0.0000 -17.5212 23.3739 -4.3351 21.0487 0.0000 0.0000 -70.8464 -5.3899 -9.2635 103.0958 -0.0000 0.0000 39.9184 -21.1685 31.2690 10.0519 -0.0000 0.0000
 5.9818 33.3693 2.6616 -12.1574 -9.1306 -22.3159 9.0448 14.8167 10.8423 13.4686 -12.9198 14.3938 -6.6872 13.5052 33.6057 5.2162 8.0170 -82.2807 -121.9418 -0.0000 -19.9011 -3.2485 -9.3606 -19.2370 33.1476 -0.0000 26.2537 10.9288 -24.4816 -19.8395 -8.4848 8.0663 79.1134 14.5206 -0.0000 15.6529 -2.3428 18.5546 7.3263 32.8623 0.0000 -24.3270 15.9925 9.9324 10.6488 0.5373 -0.0000 -0.0000 -17.3871 23.0399 -4.4711 20.9090 -0.0000 0.0000 -70.3989 -3.2941 -8.9811 103.6347 -0.0000 0.0000 39.8548 -20.9697 30.4584 10.1069 0.0000 -0.0000
 5.9759 33.3919 2.6741 -12.1034 -8.8894 -22.4931 8.9512 14.5815 11.1338 13.4940 -12.9491 14.3777 -6.6675 13.4395 33.5729 5.3216 8.1125 -82.2705 -121.7730 -0.0000 -19.9319 -3.2800 -9.4361 -19.2676 33.1476 -0.0000 26.2537 10.9150 -24.4676 -19.8191 -8.5484 8.0877 79.0108 14.5309 -0.0000 15.6259 -2.4265 18.7039 7.5277 32.8623 0.0000 -24.3270 15.9633 10.0591 10.9485 0.4500 -0.0000 0.0000 -17.2768 22.7976 -4.9618 21.2226 -0.0000 0.0000 -69.9817 -1.2228 -8.7972 104.2295 -0.0000 0.0000 39.8529 -20.9043 30.1697 8.9908 -0.0000 -0.0000
 5.9709 33.4163 2.6864 -12.0585 -8.6266 -22.7275 8.8523 14.3133 11.5325 13.5502 -12.9677 14.2600 -6.6611 13.3600 33.5039 5.4692 8.2344 -82.3022 -121.5675 -0.0000 -20.0201 -3.3382 -9.5282 -19.4111 33.1476 -0.0000 26.2537 10.8517 -24.4251 -19.8560 -8.5875 8.1170 78.9127 14.5361 -0.0000 15.7119 -2.3989 18.5640 7.4964 32.8623 0.0000 -24.3270 15.9071 10.2408 11.3055 0.4182 0.0000 -0.0000 -17.2108 22.4548 -5.3741 21.4967 -0.0000 -0.0000 -69.5419 0.6777 -8.6691 104.8389 0.0000 -0.0000 39.8711 -20.7925 29.6772 11.0673 0.0000 -0.0000
 5.9673 33.4400 2.7037 -12.0648 -8.3711 -22.9666 8.7951 14.0651 11.9379 13.6195 -12.9647 14.1164 -6.6850 13.2713 33.4579 5.6275 8.3592 -82.3961 -121.3163 -0.0000 -20.0468 -3.3776 -9.6715 -19.3563 33.1476 -0.0000 26.2537 10.8016 -24.4091 -19.8998 -8.6539 8.1541 78.8214 14.5419 -0.0000 15.8245 -2.3636 18.5651 7.3869 32.8623 0.0000 -24.3270 15.9502 10.4176 11.6319 0.2915 -0.0000 0.0000 -17.0913 22.1969 -5.6506 21.5306 -0.0000 -0.0000 -69.0491 2.5081 -8.5648 105.4835 0.0000 0.0000 39.8003 -20.8189 29.6157 11.5818 0.0000 -0.0000
 5.9633 33.4646 2.7248 -12.0845 -8.1044 -23.1916 8.7500 13.8084 12.3218 13.7351 -12.9372 13.9821 -6.6721 13.2118 33.4174 5.7279 8.4927 -82.5390 -121.0214 -0.0000 -20.1092 -3.4434 -9.7867 -19.4932 33.1476 -0.0000 26.2537 10.7733 -24.3928 -19.9161 -8.7129 8.1658 78.7181 14.5473 -0.0000 15.8067 -2.4228 18.6567 7.5346 32.8623 0.0000 -24.3270 16.0010 10.6644 11.9462 0.1667 -0.0000 -0.0000 -16.9632 21.8674 -5.9799 21.7342 0.0000 -0.0000 -68.5396 4.1967 -8.5366 106.1609 0.0000 -0.0000 39.7636 -20.7653 28.9468 10.2218 0.0000 -0.0000
 5.9651 33.4879 2.7426 -12.0539 -7.8433 -23.3867 8.6584 13.5214 12.7028 13.8686 -12.9046 13.8202 -6.6447 13.2026 33.3679 5.7801 8.5972 -82.7213 -120.6900 -0.0000 -20.2251 -3.5238 -9.9839 -19.5544 33.1476 -0.0000 26.2537 10.7250 -24.3684 -19.9538 -8.7500 8.1363 78.6210 14.5899 -0.0000 15.7208 -2.4351 18.6161 7.5880 32.8623 0.0000 -24.3270 15.9746 10.8793 12.2371 0.0923 -0.0000 0.0000 -16.8631 21.5451 -6.3764 22.0493 0.0000 -0.0000 -68.0824 5.7644 -8.5801 106.8647 0.0000 -0.0000 39.6560 -20.7507 28.5156 9.7738 -0.0000 0.0000
 5.9699 33.5123 2.7631 -12.0224 -7.6074 -23.5937 8.5359 13.2494 13.1199 14.0452 -12.8833 13.6256 -6.7379 13.0972 33.3050 6.0113 8.7222 -82.9126 -120.4138 -0.0000 -20.2839 -3.6062 -10.0611 -19.8374 33.1476 -0.0000 26.2537 10.7471 -24.3859 -19.9679 -8.8503 8.1435 78.5082 14.6211 -0.0000 15.6635 -2.3885 18.6251 7.4408 32.8623 0.0000 -24.3270 15.9608 11.1475 12.5250 -0.0338 0.0000 0.0000 -16.7135 21.1810 -6.7201 22.2295 -0.0000 0.0000 -67.6482 7.1477 -8.6892 107.5041 0.0000 0.0000 39.6513 -20.9343 28.4346 11.0401 0.0000 -0.0000
 5.9787 33.5352 2.7857 -11.9814 -7.3588 -23.7723 8.4103 12.9618 13.5226 14.2412 -12.8074 13.4076 -6.7780 13.0395 33.2267 6.1731 8.8238 -83.1196 -120.1651 -0.0000 -20.1986 -3.6351 -10.0728 -19.9631 33.1476 -0.0000 26.2537 10.7980 -24.4644 -19.9845 -9.0136 8.1969 78.4123 14.6160 -0.0000 15.5519 -2.3775 18.5993 7.4169 32.8623 0.0000 -24.3270 15.9537 11.3844 12.7807 -0.1580 -0.0000 -0.0000 -16.5736 20.7991 -7.0653 22.3895 -0.0000 -0.0000 -67.2203 8.3208 -8.9326 108.1675 -0.0000 -0.0000 39.5251 -21.0599 27.8105 10.6065 -0.0000 0.0000
 5.9873 33.5597 2.8054 -11.8862 -7.1229 -23.9686 8.2091 12.6436 13.9680 14.4635 -12.7179 13.1751 -6.7590 13.0554 33.1139 6.2567 8.8687 -83.3175 -119.9303 -0.0000 -20.0614 -3.6930 -10.1606 -20.0967 33.1476 -0.0000 26.2537 10.6876 -24.4296 -20.0848 -8.9507 8.1769 78.3114 14.6674 -0.0000 15.5028 -2.3838 18.6669 7.4104 32.8623 0.0000 -24.3270 15.8762 11.6211 13.0657 -0.2894 -0.0000 0.0000 -16.4406 20.4476 -7.4050 22.5816 0.0000 -0.0000 -66.8476 9.2810 -9.2453 108.7735 -0.0000 -0.0000 39.3687 -21.2525 27.4125 10.8057 0.0000 -0.0000
 5.9996 33.5840 2.8272 -11.7913 -6.9030 -24.1588 7.9847 12.3578 14.4277 14.6994 -12.6468 12.9251 -6.7957 13.0014 32.9914 6.4446 8.8616 -83.5028 -119.7397 -0.0000 -19.8925 -3.7276 -10.1867 -20.2228 33.1476 -0.0000 26.2537 10.5618 -24.4347 -20.2068 -8.8804 8.1577 78.2159 14.7030 -0.0000 15.4325 -2.4172 18.7514 7.4811 32.8623 0.0000 -24.3270 15.8667 11.7834 13.3219 -0.5221 -0.0000 0.0000 -16.2549 20.2570 -7.8165 22.9921 0.0000 -0.0000 -66.4931 10.0593 -9.6116 109.3811 0.0000 -0.0000 39.2593 -21.3594 27.1520 11.1620 -0.0000 -0.0000
 6.0138 33.6072 2.8509 -11.6244 -6.6838 -24.3278 7.6812 12.0134 14.8815 14.9480 -12.5738 12.6545 -6.7923 13.0044 32.8686 6.6239 8.7965 -83.6712 -119.5836 -0.0000 -19.6830 -3.7645 -10.2117 -20.3620 33.1476 -0.0000 26.2537 10.4629 -24.4601 -20.3208 -8.8166 8.1519 78.1096 14.7633 -0.0000 15.3497 -2.4819 18.7274 7.6885 32.8623 0.0000 -24.3270 15.6995 12.0970 13.5852 -0.6573 -0.0000 -0.0000 -16.1208 19.8473 -8.2807 23.3786 -0.0000 -0.0000 -66.2068 10.6102 -10.0901 109.9624 0.0000 -0.0000 39.2519 -21.1827 26.7182 11.3271 0.0000 -0.0000
 6.0334 33.6311 2.8725 -11.4833 -6.4653 -24.4905 7.4239 11.7226 15.3344 15.1348 -12.5385 12.4147 -6.7723 12.9993 32.7219 6.7563 8.6713 -83.8409 -119.4415 -0.0000 -19.5350 -3.8085 -10.2537 -20.5043 33.1476 -0.0000 26.2537 10.3982 -24.5196 -20.4115 -8.7941 8.0808 78.0046 14.8321 -0.0000 15.3570 -2.5082 18.7488 7.7607 32.8623 0.0000 -24.3270 15.5888 12.2538 13.8183 -0.7852 0.0000 -0.0000 -15.9731 19.5781 -8.5922 23.7216 0.0000 -0.0000 -65.9130 10.9871 -10.6256 110.5001 0.0000 0.0000 39.2705 -21.0026 26.6293 11.0553 -0.0000 -0.0000
 6.0583 33.6503 2.8952 -11.3057 -6.2428 -24.5880 7.1530 11.3746 15.7188 15.3055 -12.5059 12.1767 -6.6595 13.1004 32.6007 6.7671 8.4967 -84.0162 -119.2907 -0.0000 -19.4173 -3.8684 -10.2914 -20.7315 33.1476 -0.0000 26.2537 10.3415 -24.5649 -20.4954 -8.7739 7.9917 77.9000 14.9033 -0.0000 15.3842 -2.5203 18.8929 7.7411 32.8623 0.0000 -24.3270 15.4445 12.3458 13.9744 -0.8790 0.0000 -0.0000 -15.8381 19.3040 -8.7339 23.9413 -0.0000 0.0000 -65.6800 11.2173 -11.2690 111.0245 -0.0000 0.0000 39.3350 -20.7316 26.5170 10.5070 -0.0000 0.0000
 6.0833 33.6697 2.9126 -11.1130 -6.0811 -24.6989 6.8671 11.0699 16.0967 15.4087 -12.4201 11.9786 -6.5954 13.1751 32.4894 6.8425 8.2970 -84.1730 -119.1767 -0.0000 -19.4174 -4.0350 -10.3453 -21.4456 33.1476 -0.0000 26.2537 10.3194 -24.5966 -20.5563 -8.7632 7.9296 77.7883 14.9955 -0.0000 15.3549 -2.5389 18.8692 7.8068 32.8623 0.0000 -24.3270 15.2507 12.4161 14.1334 -0.9266 -0.0000 0.0000 -15.7266 19.0970 -8.8418 23.9768 -0.0000 0.0000 -65.5309 11.2911 -11.8451 111.5123 -0.0000 0.0000 39.3599 -20.3945 26.2875 10.4593 -0.0000 -0.0000
 6.1080 33.6860 2.9297 -10.9521 -5.9214 -24.7910 6.6365 10.8387 16.4230 15.4361 -12.3799 11.8380 -6.5032 13.2324 32.3962 6.8441 8.0461 -84.3197 -119.0840 -0.0000 -19.2757 -4.0556 -10.4246 -21.3980 33.1476 -0.0000 26.2537 10.2787 -24.6751 -20.5904 -8.7534 7.8169 77.6796 15.0693 -0.0000 15.3895 -2.5953 18.8043 8.0045 32.8623 0.0000 -24.3270 15.0933 12.4156 14.2630 -0.9344 -0.0000 -0.0000 -15.6503 18.9300 -8.8589 24.0295 0.0000 0.0000 -65.3964 11.2337 -12.4423 111.9749 -0.0000 0.0000 39.3788 -20.1982 26.3004 10.1527 -0.0000 0.0000
